{"title":"UHF(1989)MPEG-4[DaScubaDude]","uid":15068322,"size":965024908,"categoryP":"video","categoryS":"movies","magnet":"?xt=urn:btih:9f92bd1dd1477c663bf55bfb4fc0ef3043cd1c34&amp;dn=UHF%281989%29MPEG-4%5BDaScubaDude%5D&amp;tr=udp%3A%2F%2Ftracker.leechers-paradise.org%3A6969&amp;tr=udp%3A%2F%2Fzer0day.ch%3A1337&amp;tr=udp%3A%2F%2Fopen.demonii.com%3A1337&amp;tr=udp%3A%2F%2Ftracker.coppersurfer.tk%3A6969&amp;tr=udp%3A%2F%2Fexodus.desync.com%3A6969","seeders":0,"leechers":1,"uploader":"dascuba","files":1,"time":1466793998,"description":"UHF (1989)\r\nPG-13 | 1h 37min | Comedy, Drama | 21 July 1989 (USA)\r\nA local public station gets a new owner. The station becomes a hit, with all sorts of hilarious sight gags and wacky humor.\r\nDirector: Jay Levey\r\nWriters: 'Weird Al' Yankovic (as Al Yankovic), Jay Levey\r\nStars: 'Weird Al' Yankovic, Victoria Jackson, Kevin McCarthy |\r\n\r\n General\r\nComplete name                            : UHFUHF1_Title1.mp4\r\nFormat                                   : MPEG-4\r\nFormat profile                           : Base Media\r\nCodec ID                                 : isom (isom/iso2/avc1/mp41)\r\nFile size                                : 920 MiB\r\nDuration                                 : 1h 37mn\r\nOverall bit rate                         : 1 326 Kbps\r\nMovie name                               : UHF1\r\nGenre                                    : Comedy\r\nWriting application                      : Lavf54.6.100\r\n\r\nVideo\r\nID                                       : 1\r\nFormat                                   : AVC\r\nFormat/Info                              : Advanced Video Codec\r\nFormat profile                           :   \r\nFormat settings, CABAC                   : No\r\nFormat settings, ReFrames                : 6 frames\r\nCodec ID                                 : avc1\r\nCodec ID/Info                            : Advanced Video Coding\r\nDuration                                 : 1h 37mn\r\nBit rate                                 : 1 191 Kbps\r\nWidth                                    : 720 pixels\r\nHeight                                   : 404 pixels\r\nDisplay aspect ratio                     : 16:9\r\nFrame rate mode                          : Constant\r\nFrame rate                               : 29.970 (30000/1001) fps\r\nColor space                              : YUV\r\nChroma subsampling                       : 4:2:0\r\nBit depth                                : 8 bits\r\nScan type                                : Progressive\r\nBits/(Pixel*Frame)                       : 0.137\r\nStream size                              : 827 MiB (90%)\r\n\r\nAudio\r\nID                                       : 2\r\nFormat                                   : AAC\r\nFormat/Info                              : Advanced Audio Codec\r\nFormat profile                           : LC\r\nCodec ID                                 : 40\r\nDuration                                 : 1h 37mn\r\nBit rate mode                            : Constant\r\nBit rate                                 : 128 Kbps\r\nChannel(s)                               : 2 channels\r\nChannel positions                        : Front: L R\r\nSampling rate                            : 44.1 KHz\r\nFrame rate                               : 43.066 fps (1024 spf)\r\nCompression mode                         : Lossy\r\nStream size                              : 88.9 MiB (10%)\r\nDefault                                  : Yes\r\nAlternate group                          : 1","torrent":{"xt":"urn:btih:9f92bd1dd1477c663bf55bfb4fc0ef3043cd1c34","amp;dn":"UHF%281989%29MPEG-4%5BDaScubaDude%5D","amp;tr":["udp%3A%2F%2Ftracker.leechers-paradise.org%3A6969","udp%3A%2F%2Fzer0day.ch%3A1337","udp%3A%2F%2Fopen.demonii.com%3A1337","udp%3A%2F%2Ftracker.coppersurfer.tk%3A6969","udp%3A%2F%2Fexodus.desync.com%3A6969"],"infoHash":"9f92bd1dd1477c663bf55bfb4fc0ef3043cd1c34","infoHashBuffer":{"type":"Buffer","data":[159,146,189,29,209,71,124,102,59,245,91,251,79,192,239,48,67,205,28,52]},"announce":[],"urlList":[]}}